<?xml version="1.0" encoding="utf-8"?>
<!-- Generator: Adobe Illustrator 28.0.0, SVG Export Plug-In . SVG Version: 6.00 Build 0)  -->
<svg version="1.1" id="Layer_1" xmlns:serif="http://www.serif.com/"
	 xmlns="http://www.w3.org/2000/svg" xmlns:xlink="http://www.w3.org/1999/xlink" x="0px" y="0px" viewBox="0 0 230 70.8"
	 style="enable-background:new 0 0 230 70.8;" xml:space="preserve">
<style type="text/css">
	.st0{fill:none;}
	.st1{fill:#231616;}
	.st2{fill-rule:evenodd;clip-rule:evenodd;fill:#F01F1F;}
</style>
<g transform="matrix(1,0,0,1,-136.779,-486.916)">
	<g id="GoShop_Black_Red" transform="matrix(1.03011,0,0,0.892857,136.779,486.916)">
		<rect x="-526.1" y="-821.4" class="st0" width="1326.1" height="470.7"/>
		<g transform="matrix(0.996619,0,0,0.99653,1.68872,0.480914)">
			<g transform="matrix(1.456,0,0,1.90497,365.444,-13.3812)">
				<path class="st1" d="M145-202.6h48.7c0.2-10.7-0.2-32.6,0.3-38.6l1.2-23.8c9,5.9,20.2,8.6,34.3,8.6c35.3,0,58.7-14.4,58.7-44.7
					c0-30.7-24.6-45.9-73.8-45.9c-19.7,0-39.9,2-60.6,6.1C152.1-280.5,150.1-225.5,145-202.6z M199.1-320.3c5.4-1.8,11-2.7,17-2.7
					c16.6,0,24.3,7.1,24.3,22c0,15.7-8.3,23.9-22.6,23.9c-14.6,0-20.7-7.1-20.7-22.5C197.1-308.7,197.8-315.7,199.1-320.3z"/>
			</g>
			<g transform="matrix(2.70928,0,0,1.80397,199.763,-8.90994)">
				<path class="st1" d="M60-319.2c0,29.5,13.4,46.1,37.8,46.1c24.7,0,39.9-18.7,39.9-50c0-29.3-13.4-45.9-37.5-45.9
					C75.1-369,60-349.9,60-319.2z M99.3-344.7c8.6,0,11.7,7.3,11.7,23.4c0,15.5-4.3,23.6-12.5,23.6c-8,0-11.7-7.1-11.7-22
					C86.8-336.3,90.8-344.7,99.3-344.7z"/>
			</g>
			<g transform="matrix(2.70928,0,0,1.80397,-96.5715,-8.90994)">
				<path class="st1" d="M-60.5-319.2c0,29.5,13.4,46.1,37.8,46.1c24.7,0,39.9-18.7,39.9-50c0-29.3-13.4-45.9-37.5-45.9
					C-45.4-369-60.5-349.9-60.5-319.2z M-21.2-344.7c8.6,0,11.7,7.3,11.7,23.4c0,15.5-4.3,23.6-12.5,23.6c-8,0-11.7-7.1-11.7-22
					C-33.7-336.3-29.6-344.7-21.2-344.7z"/>
			</g>
			<g transform="matrix(2.6665,0,0,1.83904,-87.1005,-12.2185)">
				<path class="st1" d="M-71.1-272c-0.1-5.4-0.1-9.3-0.1-12.1c0-10.9,0.5-28.9,2.3-53.9h-37.8l-1.1,25.7h11.1v3
					c0,4.6-0.3,9.5-0.7,14.3c-3.3,1.1-6.4,1.6-9.6,1.6c-15.5,0-24.5-11.1-24.5-29.8c0-25,12.4-40.4,34-40.4c7.5,0,16,2,26.1,5
					l-1.5-27.7c-10.9-2.3-20.2-3.6-28.3-3.6c-37.6,0-58.8,25-58.8,66.1c0,36.6,18.9,57.7,53.9,57.7C-94.5-266.1-82.9-268.1-71.1-272
					z"/>
			</g>
			<g transform="matrix(0.988878,0,0,1.08456,175.5,-390.994)">
				<path class="st1" d="M-4.4-102.1h62.5c0.6-80.9,4.1-112.5,36.2-112.5c18.1,0,22.2,12.4,22.2,40c0,12.1-1,32.2-4.1,72.5h60.9
					c1.3-53.6,4.8-85.2,4.8-107.4c0-36.5-18.1-52.4-60.6-52.4c-25.1,0-40.9,7.9-53,23.5c1-24.4,2.5-53.5,4.8-73.8H6.8
					C4.2-215.3,0.4-145.5-4.4-102.1z"/>
			</g>
			<g transform="matrix(0.974063,0,0,1.1239,-3.32666,-594.451)">
				<path class="st2" d="M218.2-196.9L-36.4,2.5l84.6,26.1L-72.3,207.4l244-204.9L93.8-26.1L218.2-196.9z"/>
			</g>
		</g>
	</g>
</g>
<g transform="matrix(1,0,0,1,-136.779,-486.916)">
	
		<g id="GoShop_Black_Red_00000132807716741559726130000015576268175429358014_" transform="matrix(1.03011,0,0,0.892857,136.779,486.916)">
		<rect x="0" y="0" class="st0" width="223.3" height="79.3"/>
		<g transform="matrix(0.996619,0,0,0.99653,1.68872,0.480914)">
			<g transform="matrix(1.456,0,0,1.90497,365.444,-13.3812)">
				<path class="st1" d="M-124.3,44.3h8.2c0-1.8,0-5.5,0.1-6.5l0.2-4c1.5,1,3.4,1.4,5.8,1.4c5.9,0,9.9-2.4,9.9-7.5
					c0-5.2-4.1-7.7-12.4-7.7c-3.3,0-6.7,0.3-10.2,1C-123.1,31.2-123.4,40.5-124.3,44.3z M-115.1,24.5c0.9-0.3,1.9-0.5,2.9-0.5
					c2.8,0,4.1,1.2,4.1,3.7c0,2.6-1.4,4-3.8,4c-2.5,0-3.5-1.2-3.5-3.8C-115.5,26.5-115.4,25.3-115.1,24.5z"/>
			</g>
			<g transform="matrix(2.70928,0,0,1.80397,199.763,-8.90994)">
				<path class="st1" d="M-18.9,27.1c0,5,2.3,7.8,6.4,7.8c4.2,0,6.7-3.1,6.7-8.4c0-4.9-2.3-7.7-6.3-7.7
					C-16.4,18.7-18.9,21.9-18.9,27.1z M-12.3,22.8c1.4,0,2,1.2,2,3.9c0,2.6-0.7,4-2.1,4c-1.3,0-2-1.2-2-3.7
					C-14.4,24.2-13.8,22.8-12.3,22.8z"/>
			</g>
			<g transform="matrix(2.70928,0,0,1.80397,-96.5715,-8.90994)">
				<path class="st1" d="M51.7,27.1c0,5,2.3,7.8,6.4,7.8c4.2,0,6.7-3.1,6.7-8.4c0-4.9-2.3-7.7-6.3-7.7
					C54.3,18.7,51.7,21.9,51.7,27.1z M58.4,22.8c1.4,0,2,1.2,2,3.9c0,2.6-0.7,4-2.1,4c-1.3,0-2-1.2-2-3.7
					C56.2,24.2,56.9,22.8,58.4,22.8z"/>
			</g>
			<g transform="matrix(2.6665,0,0,1.83904,-87.1005,-12.2185)">
				<path class="st1" d="M48,35c0-0.9,0-1.6,0-2c0-1.8,0.1-4.9,0.4-9.1H42l-0.2,4.3h1.9v0.5c0,0.8-0.1,1.6-0.1,2.4
					c-0.6,0.2-1.1,0.3-1.6,0.3c-2.6,0-4.1-1.9-4.1-5c0-4.2,2.1-6.8,5.7-6.8c1.3,0,2.7,0.3,4.4,0.8l-0.3-4.7
					c-1.8-0.4-3.4-0.6-4.8-0.6c-6.3,0-9.9,4.2-9.9,11.1c0,6.2,3.2,9.7,9.1,9.7C44.1,36,46,35.6,48,35z"/>
			</g>
			<g transform="matrix(0.988878,0,0,1.08456,175.5,-390.994)">
				<path class="st1" d="M-59.9,410.3h10.5c0.1-13.6,0.7-18.9,6.1-18.9c3,0,3.7,2.1,3.7,6.7c0,2-0.2,5.4-0.7,12.2H-30
					c0.2-9,0.8-14.3,0.8-18.1c0-6.1-3-8.8-10.2-8.8c-4.2,0-6.9,1.3-8.9,4c0.2-4.1,0.4-9,0.8-12.4H-58
					C-58.4,391.2-59.1,403-59.9,410.3z"/>
			</g>
			<g transform="matrix(0.974063,0,0,1.1239,-3.32666,-594.451)">
				<path class="st2" d="M129.4,529.9l-42.9,33.6l14.2,4.4l-20.2,30l41.1-34.5l-13.1-4.8L129.4,529.9z"/>
			</g>
		</g>
	</g>
</g>
</svg>
