<?xml version="1.0" encoding="UTF-8"?><svg id="Layer_2" xmlns="http://www.w3.org/2000/svg" viewBox="0 0 96.08 22.3"><defs><style>.cls-1{fill:none;}.cls-2{fill:#231616;}.cls-3{fill:#f01f1f;fill-rule:evenodd;}.cls-4{opacity:.5;}</style></defs><g id="Layer_1-2"><g id="GoShop_Black_Red-2"><rect class="cls-1" x="60.73" y="11.42" width="35.35" height="10.88"/><path class="cls-2" d="M90.12,21.22h1.88c0-.47,0-1.43.01-1.69l.05-1.05c.35.26.78.38,1.33.38,1.37,0,2.27-.63,2.27-1.96s-.95-2.01-2.85-2.01c-.76,0-1.54.09-2.34.27-.07,2.66-.14,5.07-.34,6.07h-.01ZM92.21,16.05c.21-.08.42-.12.66-.12.64,0,.94.31.94.96,0,.69-.32,1.05-.88,1.05s-.8-.31-.8-.99c0-.4.03-.7.08-.91h0Z"/><path class="cls-2" d="M84.43,16.95c0,1.22.97,1.91,2.72,1.91s2.87-.78,2.87-2.08c0-1.22-.97-1.91-2.7-1.91s-2.89.79-2.89,2.07h0ZM87.25,15.89c.62,0,.84.3.84.97s-.31.98-.9.98-.84-.3-.84-.91c0-.69.29-1.04.9-1.04Z"/><path class="cls-2" d="M67.88,16.95c0,1.22.97,1.91,2.72,1.91s2.87-.78,2.87-2.08c0-1.22-.97-1.91-2.7-1.91s-2.89.79-2.89,2.07h0ZM70.71,15.89c.62,0,.84.3.84.97s-.31.98-.9.98-.84-.3-.84-.91c0-.69.29-1.04.9-1.04Z"/><path class="cls-2" d="M67.45,18.61v-.51c0-.46.04-1.22.16-2.28h-2.68l-.08,1.09h.79v.13c0,.2-.02.4-.05.6-.23.05-.45.07-.68.07-1.1,0-1.73-.47-1.73-1.26,0-1.06.88-1.71,2.41-1.71.53,0,1.14.08,1.85.21l-.11-1.17c-.77-.1-1.43-.15-2-.15-2.67,0-4.17,1.06-4.17,2.8,0,1.55,1.34,2.44,3.82,2.44.82,0,1.64-.08,2.47-.25h0Z"/><path class="cls-2" d="M79.35,18.86h1.64c.02-2.02.11-2.81.95-2.81.48,0,.58.31.58,1,0,.3-.03.8-.11,1.81h1.6c.03-1.34.13-2.13.13-2.68,0-.91-.48-1.31-1.59-1.31-.66,0-1.08.2-1.39.59.03-.61.07-1.34.13-1.84h-1.64c-.07,2.42-.17,4.16-.29,5.25h0Z"/><path class="cls-3" d="M80.36,11.63l-6.59,5.16,2.19.68-3.12,4.63,6.31-5.3-2.02-.74,3.22-4.42h0Z"/></g><path class="cls-2" d="M6.94,15.04c2.95,0,7.38-.58,10.34-.58l-.51,4.33-15.24-.05C1.45,5.44.47,0,.47,0h5.82c0,8.08.24,8.39.66,15.04h0Z"/><path class="cls-2" d="M18.45,12.83c0,3.78,2.99,5.9,8.39,5.9s8.87-2.4,8.87-6.41c0-3.75-2.99-5.88-8.33-5.88s-8.93,2.45-8.93,6.39h0ZM27.18,9.55c1.9,0,2.6.94,2.6,3s-.96,3.02-2.78,3.02-2.6-.92-2.6-2.82c0-2.13.9-3.2,2.78-3.2Z"/><path class="cls-2" d="M53.26,6.71s-3.81.04-5.25-.24v6.36c0,1.9-.82,2.82-2.6,2.82h-.12c-1.78,0-2.6-.92-2.6-2.82v-6.36c-1.44.28-5.25.24-5.25.24,0,0-.69,4.23-.69,6.19,0,3.78,2.99,5.9,8.39,5.9h.43c5.4,0,8.39-2.13,8.39-5.9,0-1.96-.69-6.19-.69-6.19Z"/><g class="cls-4"><path class="cls-2" d="M6.47,15.76c2.95,0,7.38-.58,10.34-.58l-.51,4.33-15.24-.05C.99,6.16,0,.72,0,.72h5.82c0,8.08.24,8.39.66,15.04h0Z"/><path class="cls-2" d="M17.99,13.59c0,3.78,2.99,5.9,8.39,5.9s8.87-2.4,8.87-6.41c0-3.75-2.99-5.88-8.33-5.88s-8.93,2.45-8.93,6.39h0ZM26.72,10.32c1.9,0,2.6.94,2.6,3s-.96,3.02-2.78,3.02-2.6-.92-2.6-2.82c0-2.13.9-3.2,2.78-3.2Z"/><path class="cls-2" d="M52.8,7.42s-3.81.04-5.25-.24v6.36c0,1.9-.82,2.82-2.6,2.82h-.12c-1.78,0-2.6-.92-2.6-2.82v-6.36c-1.44.28-5.25.24-5.25.24,0,0-.69,4.23-.69,6.19,0,3.78,2.99,5.9,8.39,5.9h.43c5.4,0,8.39-2.13,8.39-5.9,0-1.96-.69-6.19-.69-6.19Z"/></g><path d="M55.05,15.51c0-.11.03-.18.11-.18.39-.03.38.2.36.49v.06c-.02.44,0,1.11-.03,1.71.23-.47.6-.76,1.08-.74.29.01.5.26.49.54-.03.52-.54,1.42-1.1,1.42-.12,0-.31-.02-.36-.14,0,.05-.05.22-.13.22-.07,0-.45-.1-.45-.19l.03-3.18h0ZM56.59,17.32c.02-.4-1.11.42-.95,1.15.33.28.93-.83.95-1.15Z"/><path d="M57.1,16.8c-.07-.31.39-.34.45,0,.07.32.5,1.26.9,1.19.17.01.31-1.42.42-1.51s.3,0,.36.22c-.06,1.26-.9,3.35-1.16,3.41-.77-.18.1-.71.26-1.62v-.03c-.72-.31-1.02-.87-1.22-1.66h0Z"/></g></svg>