<?xml version="1.0" encoding="UTF-8"?><svg id="Layer_2" xmlns="http://www.w3.org/2000/svg" viewBox="0 0 50.14 30.94"><defs><style>.cls-1{fill:none;}.cls-2{fill:#231616;}.cls-3{fill:#f01f1f;fill-rule:evenodd;}.cls-4{opacity:.5;}</style></defs><g id="Layer_1-2"><g id="GoShop_Black_Red-2"><rect class="cls-1" x="7.73" y="20.06" width="35.35" height="10.88"/><path class="cls-2" d="M37.12,29.86h1.88c0-.47,0-1.43.01-1.69l.05-1.05c.35.26.78.38,1.33.38,1.37,0,2.27-.63,2.27-1.96s-.95-2.01-2.85-2.01c-.76,0-1.54.09-2.34.27-.07,2.66-.14,5.07-.34,6.07h-.01ZM39.21,24.69c.21-.08.42-.12.66-.12.64,0,.94.31.94.96,0,.69-.32,1.05-.88,1.05s-.8-.31-.8-.99c0-.4.03-.7.08-.91h0Z"/><path class="cls-2" d="M31.43,25.59c0,1.22.97,1.91,2.72,1.91s2.87-.78,2.87-2.08c0-1.22-.97-1.91-2.7-1.91s-2.89.79-2.89,2.07h0ZM34.25,24.53c.62,0,.84.3.84.97s-.31.98-.9.98-.84-.3-.84-.91c0-.69.29-1.04.9-1.04Z"/><path class="cls-2" d="M14.88,25.59c0,1.22.97,1.91,2.72,1.91s2.87-.78,2.87-2.08c0-1.22-.97-1.91-2.7-1.91s-2.89.79-2.89,2.07h0ZM17.71,24.53c.62,0,.84.3.84.97s-.31.98-.9.98-.84-.3-.84-.91c0-.69.29-1.04.9-1.04Z"/><path class="cls-2" d="M14.45,27.25v-.51c0-.46.04-1.22.16-2.28h-2.68l-.08,1.09h.79v.13c0,.2-.02.4-.05.6-.23.05-.45.07-.68.07-1.1,0-1.73-.47-1.73-1.26,0-1.06.88-1.71,2.41-1.71.53,0,1.14.08,1.85.21l-.11-1.17c-.77-.1-1.43-.15-2-.15-2.67,0-4.17,1.06-4.17,2.8,0,1.55,1.34,2.44,3.82,2.44.82,0,1.64-.08,2.47-.25h0Z"/><path class="cls-2" d="M26.35,27.5h1.64c.02-2.02.11-2.81.95-2.81.48,0,.58.31.58,1,0,.3-.03.8-.11,1.81h1.6c.03-1.34.13-2.13.13-2.68,0-.91-.48-1.31-1.59-1.31-.66,0-1.08.2-1.39.59.03-.61.07-1.34.13-1.84h-1.64c-.07,2.42-.17,4.16-.29,5.25h0Z"/><path class="cls-3" d="M27.36,20.27l-6.59,5.16,2.19.68-3.12,4.63,6.31-5.3-2.02-.74,3.22-4.42h0Z"/></g><path d="M4.37,19.47c0-.09.02-.14.09-.14.3-.02.29.16.28.38v.05c-.02.34,0,.86-.02,1.33.18-.36.47-.59.84-.57.22,0,.39.2.38.42-.02.4-.42,1.1-.85,1.1-.09,0-.24-.02-.28-.11,0,.04-.04.17-.1.17-.05,0-.35-.08-.35-.15l.02-2.47h0ZM5.56,20.87c.02-.31-.86.33-.74.89.26.22.72-.64.74-.89Z"/><path d="M5.96,20.47c-.05-.24.3-.26.35,0,.05.25.39.98.7.92.13,0,.24-1.1.33-1.17s.23,0,.28.17c-.05.98-.7,2.6-.9,2.65-.6-.14.08-.55.2-1.26v-.02c-.56-.24-.79-.67-.95-1.29h0Z"/><path class="cls-2" d="M6.45,13.98c2.74,0,6.86-.54,9.6-.54l-.47,4.03-14.16-.05C1.34,5.06.44,0,.44,0h5.4c0,7.51.22,7.8.62,13.98h0Z"/><path class="cls-2" d="M17.14,11.92c0,3.51,2.78,5.48,7.79,5.48s8.24-2.23,8.24-5.96c0-3.49-2.78-5.47-7.74-5.47s-8.3,2.28-8.3,5.93h0ZM25.25,8.88c1.76,0,2.41.87,2.41,2.78s-.89,2.81-2.58,2.81-2.41-.85-2.41-2.62c0-1.98.84-2.97,2.58-2.97Z"/><path class="cls-2" d="M49.5,6.23s-3.54.04-4.88-.22v5.91c0,1.76-.76,2.62-2.41,2.62h-.11c-1.65,0-2.41-.85-2.41-2.62v-5.91c-1.34.26-4.88.22-4.88.22,0,0-.64,3.93-.64,5.75,0,3.51,2.78,5.48,7.79,5.48h.4c5.02,0,7.79-1.98,7.79-5.48,0-1.82-.64-5.75-.64-5.75Z"/><g class="cls-4"><path class="cls-2" d="M6.01,14.64c2.74,0,6.86-.54,9.6-.54l-.47,4.03-14.16-.05C.92,5.72,0,.67,0,.67h5.4c0,7.51.22,7.8.62,13.98h0Z"/><path class="cls-2" d="M16.72,12.63c0,3.51,2.78,5.48,7.79,5.48s8.24-2.23,8.24-5.96c0-3.49-2.78-5.47-7.74-5.47s-8.3,2.28-8.3,5.93h0ZM24.83,9.59c1.76,0,2.41.87,2.41,2.78s-.89,2.81-2.58,2.81-2.41-.85-2.41-2.62c0-1.98.84-2.97,2.58-2.97Z"/><path class="cls-2" d="M49.06,6.9s-3.54.04-4.88-.22v5.91c0,1.76-.76,2.62-2.41,2.62h-.11c-1.65,0-2.41-.85-2.41-2.62v-5.91c-1.34.26-4.88.22-4.88.22,0,0-.64,3.93-.64,5.75,0,3.51,2.78,5.48,7.79,5.48h.4c5.02,0,7.79-1.98,7.79-5.48,0-1.82-.64-5.75-.64-5.75Z"/></g></g></svg>